<svg width="19" height="17" viewBox="0 0 19 17" fill="none" xmlns="http://www.w3.org/2000/svg">
<circle cx="15" cy="2" r="2" fill="#222222"/>
<path d="M3.22641 7.14466L1.71963 8.40031C1.36576 8.6952 1.18882 8.84265 1.09441 9.04422C1 9.24579 1 9.47611 1 9.93675V12C1 13.8856 1 14.8284 1.58579 15.4142C2.17157 16 3.11438 16 5 16H14C15.8856 16 16.8284 16 17.4142 15.4142C18 14.8284 18 13.8856 18 12V11.8284C18 11.4197 18 11.2153 17.9239 11.0315C17.8478 10.8478 17.7032 10.7032 17.4142 10.4142L17.4142 10.4142L16.3008 9.30081C15.4728 8.47283 15.0588 8.05884 14.5777 7.91367C14.2009 7.80001 13.7991 7.80001 13.4223 7.91367C12.9412 8.05884 12.5272 8.47283 11.6992 9.30081C11.1138 9.88616 10.8212 10.1788 10.5102 10.2334C10.2685 10.2758 10.0197 10.2279 9.81101 10.0988C9.54254 9.9326 9.3795 9.55216 9.05341 8.79128L8.93498 8.51495C8.1361 6.6509 7.73666 5.71888 6.98531 5.40712C6.79066 5.32635 6.58447 5.27686 6.37436 5.26047C5.56336 5.1972 4.78438 5.84635 3.22641 7.14466Z" fill="#222222" stroke="#222222" stroke-width="2"/>
</svg>
